<svg width="61" height="66" viewBox="0 0 61 66" fill="none" xmlns="http://www.w3.org/2000/svg">
<path d="M1.536 21.632C1.792 17.8773 2.73067 14.6347 4.352 11.904C5.97333 9.17334 7.97867 6.95467 10.368 5.248C12.8427 3.456 15.5733 2.13334 18.56 1.28C21.5467 0.426668 24.5333 0 27.52 0C30.848 0 34.048 0.384001 37.12 1.152C40.192 1.83467 42.9227 2.98667 45.312 4.608C47.7013 6.22933 49.6213 8.27733 51.072 10.752C52.5227 13.2267 53.248 16.256 53.248 19.84V50.944C53.248 51.6267 53.376 52.2667 53.632 52.864C53.888 53.376 54.1867 53.632 54.528 53.632C54.6987 53.632 55.296 53.4613 56.32 53.12C57.344 52.7787 58.7093 52.3947 60.416 51.968V64.128C58.368 64.8107 56.704 65.28 55.424 65.536C54.144 65.792 52.7787 65.92 51.328 65.92C48.8533 65.92 46.6773 65.3653 44.8 64.256C42.9227 63.0613 41.5147 61.0987 40.576 58.368C37.3333 61.2693 34.0053 63.2747 30.592 64.384C27.264 65.408 23.8933 65.92 20.48 65.92C17.664 65.92 14.976 65.4933 12.416 64.64C9.94134 63.7013 7.76533 62.4213 5.888 60.8C4.096 59.0933 2.64533 57.088 1.536 54.784C0.512001 52.48 9.53674e-07 49.8773 9.53674e-07 46.976C9.53674e-07 43.7333 0.768001 41.0027 2.304 38.784C3.84 36.5653 5.80267 34.7307 8.192 33.28C10.6667 31.8293 13.3973 30.6347 16.384 29.696C19.3707 28.672 22.3147 27.776 25.216 27.008C27.008 26.496 28.672 26.0267 30.208 25.6C31.8293 25.088 33.2373 24.576 34.432 24.064C35.712 23.4667 36.6933 22.8267 37.376 22.144C38.144 21.4613 38.528 20.6933 38.528 19.84C38.528 17.1947 37.5467 15.3173 35.584 14.208C33.6213 13.0987 30.848 12.544 27.264 12.544C24.5333 12.544 22.144 13.2693 20.096 14.72C18.1333 16.0853 16.896 18.3893 16.384 21.632H1.536ZM38.528 34.176C36.992 34.8587 35.328 35.4987 33.536 36.096C31.8293 36.6933 30.0373 37.248 28.16 37.76L27.136 38.016C25.5147 38.528 23.936 39.04 22.4 39.552C20.9493 40.064 19.6267 40.6613 18.432 41.344C17.3227 41.9413 16.384 42.6667 15.616 43.52C14.9333 44.3733 14.592 45.3547 14.592 46.464C14.592 49.024 15.3173 50.8587 16.768 51.968C18.304 53.0773 19.968 53.632 21.76 53.632C24.6613 53.632 27.6053 52.6507 30.592 50.688C33.5787 48.7253 36.224 45.824 38.528 41.984V34.176Z" fill="black"/>
</svg>
