<svg width="582" height="160" viewBox="0 0 582 160" fill="none" xmlns="http://www.w3.org/2000/svg">
<path d="M5.76 65.864C6.016 62.1093 6.95467 58.8667 8.576 56.136C10.1973 53.4053 12.2027 51.1867 14.592 49.48C17.0667 47.688 19.7973 46.3653 22.784 45.512C25.7707 44.6587 28.7573 44.232 31.744 44.232C35.072 44.232 38.272 44.616 41.344 45.384C44.416 46.0667 47.1467 47.2187 49.536 48.84C51.9253 50.4613 53.8453 52.5093 55.296 54.984C56.7467 57.4587 57.472 60.488 57.472 64.072V95.176C57.472 95.8587 57.6 96.4987 57.856 97.096C58.112 97.608 58.4107 97.864 58.752 97.864C58.9227 97.864 59.52 97.6933 60.544 97.352C61.568 97.0107 62.9333 96.6267 64.64 96.2V108.36C62.592 109.043 60.928 109.512 59.648 109.768C58.368 110.024 57.0027 110.152 55.552 110.152C53.0773 110.152 50.9013 109.597 49.024 108.488C47.1467 107.293 45.7387 105.331 44.8 102.6C41.5573 105.501 38.2293 107.507 34.816 108.616C31.488 109.64 28.1173 110.152 24.704 110.152C21.888 110.152 19.2 109.725 16.64 108.872C14.1653 107.933 11.9893 106.653 10.112 105.032C8.32 103.325 6.86933 101.32 5.76 99.016C4.736 96.712 4.224 94.1093 4.224 91.208C4.224 87.9653 4.992 85.2347 6.528 83.016C8.064 80.7973 10.0267 78.9627 12.416 77.512C14.8907 76.0613 17.6213 74.8667 20.608 73.928C23.5947 72.904 26.5387 72.008 29.44 71.24C31.232 70.728 32.896 70.2587 34.432 69.832C36.0533 69.32 37.4613 68.808 38.656 68.296C39.936 67.6987 40.9173 67.0587 41.6 66.376C42.368 65.6933 42.752 64.9253 42.752 64.072C42.752 61.4267 41.7707 59.5493 39.808 58.44C37.8453 57.3307 35.072 56.776 31.488 56.776C28.7573 56.776 26.368 57.5013 24.32 58.952C22.3573 60.3173 21.12 62.6213 20.608 65.864H5.76ZM42.752 78.408C41.216 79.0907 39.552 79.7307 37.76 80.328C36.0533 80.9253 34.2613 81.48 32.384 81.992L31.36 82.248C29.7387 82.76 28.16 83.272 26.624 83.784C25.1733 84.296 23.8507 84.8933 22.656 85.576C21.5467 86.1733 20.608 86.8987 19.84 87.752C19.1573 88.6053 18.816 89.5867 18.816 90.696C18.816 93.256 19.5413 95.0907 20.992 96.2C22.528 97.3093 24.192 97.864 25.984 97.864C28.8853 97.864 31.8293 96.8827 34.816 94.92C37.8027 92.9573 40.448 90.056 42.752 86.216V78.408Z" fill="black"/>
<path d="M143.38 101.5C141.532 101.5 140.188 101.024 139.348 100.072C138.508 99.12 138.032 97.832 137.92 96.208V94.696H137.5C136.548 97.104 134.98 99.008 132.796 100.408C130.612 101.808 127.84 102.508 124.48 102.508C119.944 102.508 116.444 101.416 113.98 99.232C111.516 96.992 110.284 93.856 110.284 89.824C110.284 86.016 111.628 82.992 114.316 80.752C117.06 78.512 121.54 77.392 127.756 77.392H137.668V72.352C137.668 65.24 134 61.684 126.664 61.684C123.808 61.684 121.428 62.3 119.524 63.532C117.62 64.708 116.08 66.416 114.904 68.656L111.88 66.136C113.056 63.616 114.848 61.544 117.256 59.92C119.72 58.296 122.912 57.484 126.832 57.484C131.872 57.484 135.736 58.744 138.424 61.264C141.112 63.784 142.456 67.312 142.456 71.848V97.3H148.252V101.5H143.38ZM125.152 98.392C126.888 98.392 128.512 98.168 130.024 97.72C131.536 97.272 132.852 96.656 133.972 95.872C135.148 95.032 136.044 94.052 136.66 92.932C137.332 91.756 137.668 90.44 137.668 88.984V81.004H127.588C123.276 81.004 120.14 81.704 118.18 83.104C116.276 84.448 115.324 86.324 115.324 88.732V90.748C115.324 93.268 116.22 95.172 118.012 96.46C119.804 97.748 122.184 98.392 125.152 98.392ZM158.109 101.5V58.492H162.897V65.296H163.149C163.597 64.232 164.157 63.252 164.829 62.356C165.501 61.404 166.313 60.564 167.265 59.836C168.217 59.108 169.337 58.548 170.625 58.156C171.969 57.708 173.537 57.484 175.329 57.484C178.409 57.484 181.125 58.212 183.477 59.668C185.829 61.124 187.537 63.42 188.601 66.556H188.853C189.637 64.036 191.121 61.908 193.305 60.172C195.545 58.38 198.569 57.484 202.377 57.484C206.969 57.484 210.497 58.912 212.961 61.768C215.425 64.568 216.657 68.6 216.657 73.864V101.5H211.869V74.704C211.869 66.08 208.257 61.768 201.033 61.768C199.521 61.768 198.093 61.964 196.749 62.356C195.405 62.748 194.201 63.364 193.137 64.204C192.129 64.988 191.317 65.996 190.701 67.228C190.085 68.404 189.777 69.776 189.777 71.344V101.5H184.989V74.704C184.989 66.08 181.405 61.768 174.237 61.768C172.781 61.768 171.353 61.964 169.953 62.356C168.609 62.748 167.405 63.336 166.341 64.12C165.277 64.904 164.437 65.912 163.821 67.144C163.205 68.32 162.897 69.692 162.897 71.26V101.5H158.109ZM234.043 46.816C232.923 46.816 232.083 46.536 231.523 45.976C231.019 45.416 230.767 44.688 230.767 43.792V42.952C230.767 42.056 231.019 41.328 231.523 40.768C232.083 40.208 232.923 39.928 234.043 39.928C235.163 39.928 235.975 40.208 236.479 40.768C237.039 41.328 237.319 42.056 237.319 42.952V43.792C237.319 44.688 237.039 45.416 236.479 45.976C235.975 46.536 235.163 46.816 234.043 46.816ZM231.691 58.492H236.479V101.5H231.691V58.492ZM277.821 58.492H282.693L262.785 113.596C262.113 115.388 261.301 116.62 260.349 117.292C259.397 117.964 257.829 118.3 255.645 118.3H250.773V114.1H257.997L262.113 102.76L246.153 58.492H251.193L264.381 96.376H264.717L277.821 58.492ZM320.732 101.5C318.884 101.5 317.54 101.024 316.7 100.072C315.86 99.12 315.384 97.832 315.272 96.208V94.696H314.852C313.9 97.104 312.332 99.008 310.148 100.408C307.964 101.808 305.192 102.508 301.832 102.508C297.296 102.508 293.796 101.416 291.332 99.232C288.868 96.992 287.636 93.856 287.636 89.824C287.636 86.016 288.98 82.992 291.668 80.752C294.412 78.512 298.892 77.392 305.108 77.392H315.02V72.352C315.02 65.24 311.352 61.684 304.016 61.684C301.16 61.684 298.78 62.3 296.876 63.532C294.972 64.708 293.432 66.416 292.256 68.656L289.232 66.136C290.408 63.616 292.2 61.544 294.608 59.92C297.072 58.296 300.264 57.484 304.184 57.484C309.224 57.484 313.088 58.744 315.776 61.264C318.464 63.784 319.808 67.312 319.808 71.848V97.3H325.604V101.5H320.732ZM302.504 98.392C304.24 98.392 305.864 98.168 307.376 97.72C308.888 97.272 310.204 96.656 311.324 95.872C312.5 95.032 313.396 94.052 314.012 92.932C314.684 91.756 315.02 90.44 315.02 88.984V81.004H304.94C300.628 81.004 297.492 81.704 295.532 83.104C293.628 84.448 292.676 86.324 292.676 88.732V90.748C292.676 93.268 293.572 95.172 295.364 96.46C297.156 97.748 299.536 98.392 302.504 98.392ZM355.312 39.34H360.1V65.296H360.352C361.304 63.056 362.788 61.208 364.804 59.752C366.82 58.24 369.564 57.484 373.036 57.484C377.628 57.484 381.184 58.912 383.704 61.768C386.28 64.568 387.568 68.6 387.568 73.864V101.5H382.78V74.704C382.78 70.336 381.828 67.088 379.924 64.96C378.076 62.832 375.36 61.768 371.776 61.768C370.264 61.768 368.808 61.964 367.408 62.356C366.008 62.748 364.748 63.336 363.628 64.12C362.564 64.904 361.696 65.912 361.024 67.144C360.408 68.32 360.1 69.692 360.1 71.26V101.5H355.312V39.34ZM418.016 102.508C415.16 102.508 412.556 102.004 410.204 100.996C407.908 99.988 405.92 98.532 404.24 96.628C402.616 94.668 401.356 92.288 400.46 89.488C399.62 86.688 399.2 83.524 399.2 79.996C399.2 76.468 399.62 73.332 400.46 70.588C401.356 67.788 402.616 65.436 404.24 63.532C405.92 61.572 407.908 60.088 410.204 59.08C412.5 58.016 415.076 57.484 417.932 57.484C420.676 57.484 423.168 58.016 425.408 59.08C427.648 60.088 429.552 61.516 431.12 63.364C432.688 65.212 433.892 67.452 434.732 70.084C435.628 72.66 436.076 75.516 436.076 78.652V80.92H404.24V83.02C404.24 85.26 404.548 87.332 405.164 89.236C405.836 91.084 406.76 92.68 407.936 94.024C409.168 95.368 410.652 96.432 412.388 97.216C414.124 97.944 416.084 98.308 418.268 98.308C424.54 98.308 428.88 95.424 431.288 89.656L434.816 92.008C433.472 95.2 431.344 97.748 428.432 99.652C425.576 101.556 422.104 102.508 418.016 102.508ZM417.932 61.516C415.86 61.516 413.984 61.908 412.304 62.692C410.624 63.42 409.168 64.456 407.936 65.8C406.76 67.144 405.836 68.768 405.164 70.672C404.548 72.52 404.24 74.564 404.24 76.804V77.224H430.868V76.552C430.868 74.312 430.56 72.268 429.944 70.42C429.328 68.516 428.432 66.92 427.256 65.632C426.136 64.344 424.764 63.336 423.14 62.608C421.572 61.88 419.836 61.516 417.932 61.516ZM477.821 101.5C475.973 101.5 474.629 101.024 473.789 100.072C472.949 99.12 472.473 97.832 472.361 96.208V94.696H471.941C470.989 97.104 469.421 99.008 467.237 100.408C465.053 101.808 462.281 102.508 458.921 102.508C454.385 102.508 450.885 101.416 448.421 99.232C445.957 96.992 444.725 93.856 444.725 89.824C444.725 86.016 446.069 82.992 448.757 80.752C451.501 78.512 455.981 77.392 462.197 77.392H472.109V72.352C472.109 65.24 468.441 61.684 461.105 61.684C458.249 61.684 455.869 62.3 453.965 63.532C452.061 64.708 450.521 66.416 449.345 68.656L446.321 66.136C447.497 63.616 449.289 61.544 451.697 59.92C454.161 58.296 457.353 57.484 461.273 57.484C466.313 57.484 470.177 58.744 472.865 61.264C475.553 63.784 476.897 67.312 476.897 71.848V97.3H482.693V101.5H477.821ZM459.593 98.392C461.329 98.392 462.953 98.168 464.465 97.72C465.977 97.272 467.293 96.656 468.413 95.872C469.589 95.032 470.485 94.052 471.101 92.932C471.773 91.756 472.109 90.44 472.109 88.984V81.004H462.029C457.717 81.004 454.581 81.704 452.621 83.104C450.717 84.448 449.765 86.324 449.765 88.732V90.748C449.765 93.268 450.661 95.172 452.453 96.46C454.245 97.748 456.625 98.392 459.593 98.392ZM497.842 101.5C496.106 101.5 494.79 101.024 493.894 100.072C492.998 99.12 492.55 97.86 492.55 96.292V39.34H497.338V97.3H503.974V101.5H497.842ZM521.681 101.5C519.945 101.5 518.629 101.024 517.733 100.072C516.837 99.12 516.389 97.832 516.389 96.208V62.692H508.913V58.492H513.785C514.961 58.492 515.745 58.268 516.137 57.82C516.585 57.316 516.809 56.448 516.809 55.216V46.48H521.177V58.492H530.921V62.692H521.177V97.3H530.249V101.5H521.681ZM542.425 39.34H547.213V65.296H547.465C548.417 63.056 549.901 61.208 551.917 59.752C553.933 58.24 556.677 57.484 560.149 57.484C564.741 57.484 568.297 58.912 570.817 61.768C573.393 64.568 574.681 68.6 574.681 73.864V101.5H569.893V74.704C569.893 70.336 568.941 67.088 567.037 64.96C565.189 62.832 562.473 61.768 558.889 61.768C557.377 61.768 555.921 61.964 554.521 62.356C553.121 62.748 551.861 63.336 550.741 64.12C549.677 64.904 548.809 65.912 548.137 67.144C547.521 68.32 547.213 69.692 547.213 71.26V101.5H542.425V39.34Z" fill="black"/>
</svg>
